<svg width="58" height="58" viewBox="0 0 58 58" fill="none" xmlns="http://www.w3.org/2000/svg">
<path d="M35.0416 25.9792H20.5416C19.5508 25.9792 18.7291 25.1575 18.7291 24.1667C18.7291 23.1758 19.5508 22.3542 20.5416 22.3542H35.0416C36.0325 22.3542 36.8541 23.1758 36.8541 24.1667C36.8541 25.1575 36.0325 25.9792 35.0416 25.9792Z" fill="#F59620"/>
<path d="M27.7916 33.2292H20.5416C19.5508 33.2292 18.7291 32.4075 18.7291 31.4167C18.7291 30.4258 19.5508 29.6042 20.5416 29.6042H27.7916C28.7825 29.6042 29.6041 30.4258 29.6041 31.4167C29.6041 32.4075 28.7825 33.2292 27.7916 33.2292Z" fill="#F59620"/>
<path opacity="0.4" d="M27.7917 50.75C40.4712 50.75 50.75 40.4712 50.75 27.7917C50.75 15.1121 40.4712 4.83334 27.7917 4.83334C15.1122 4.83334 4.83337 15.1121 4.83337 27.7917C4.83337 40.4712 15.1122 50.75 27.7917 50.75Z" fill="#F59620"/>
<path d="M51.4762 53.1669C51.0412 53.1669 50.6062 52.9977 50.292 52.6836L45.797 48.1886C45.1445 47.5361 45.1445 46.4727 45.797 45.7961C46.4495 45.1436 47.5128 45.1436 48.1895 45.7961L52.6845 50.2911C53.337 50.9436 53.337 52.0069 52.6845 52.6836C52.3462 52.9977 51.9112 53.1669 51.4762 53.1669Z" fill="#F59620"/>
</svg>
