<svg width="255" height="341" viewBox="0 0 255 341" fill="none" xmlns="http://www.w3.org/2000/svg">
<path d="M223.705 14.8525C223.705 120.81 137.81 206.705 31.8525 206.705C-74.1047 206.705 -160 120.81 -160 14.8525C-160 -91.1047 -74.1047 -177 31.8525 -177C137.81 -177 223.705 -91.1047 223.705 14.8525ZM-73.0785 14.8525C-73.0785 72.8042 -26.0993 119.783 31.8525 119.783C89.8042 119.783 136.783 72.8042 136.783 14.8525C136.783 -43.0993 89.8042 -90.0785 31.8525 -90.0785C-26.0993 -90.0785 -73.0785 -43.0993 -73.0785 14.8525Z" fill="#607486"/>
<path d="M255 230.516C255 291.01 205.961 340.049 145.467 340.049C84.9739 340.049 35.9344 291.01 35.9344 230.516C35.9344 170.023 84.9739 120.984 145.467 120.984C205.961 120.984 255 170.023 255 230.516ZM94.2412 230.516C94.2412 258.808 117.176 281.742 145.467 281.742C173.759 281.742 196.693 258.808 196.693 230.516C196.693 202.225 173.759 179.29 145.467 179.29C117.176 179.29 94.2412 202.225 94.2412 230.516Z" fill="#607486"/>
<circle cx="31.8526" cy="14.8523" r="66.6721" fill="#F59620"/>
</svg>
