<svg width="49" height="58" viewBox="0 0 49 58" fill="none" xmlns="http://www.w3.org/2000/svg">
<path opacity="0.4" d="M44.4471 35.2982C42.041 37.48 38.8515 38.6951 35.578 38.6675H8.55089C-2.8363 37.8666 -2.86428 21.5448 8.55089 20.7439H8.66283C0.856869 -0.687268 33.8433 -9.22111 37.6204 13.2595C48.1683 14.5851 52.4489 28.4214 44.4471 35.2982Z" fill="#F59620"/>
<path d="M43.1861 52.4766C43.1861 53.6089 42.2348 54.5479 41.0877 54.5479H29.8964C29.7565 54.5479 29.6445 54.5479 29.5047 54.4926C28.6933 56.5363 26.6509 58.0001 24.3007 58.0001C21.9505 58.0001 19.9081 56.5363 19.0967 54.4926C18.9568 54.5479 18.8449 54.5479 18.705 54.5479H7.51366C6.36655 54.5479 5.41528 53.6089 5.41528 52.4766C5.41528 51.3443 6.36655 50.4053 7.51366 50.4053H18.705C18.8449 50.4053 18.9568 50.4053 19.0967 50.4605C19.6563 49.0244 20.8034 47.8921 22.2583 47.3397C22.2023 47.2016 22.2023 47.0912 22.2023 46.9531V38.6678H26.3991V46.9531C26.3991 47.0912 26.3991 47.2016 26.3431 47.3397C27.798 47.8921 28.9451 49.0244 29.5047 50.4605C29.6445 50.4053 29.7565 50.4053 29.8964 50.4053H41.0877C42.2348 50.4053 43.1861 51.3443 43.1861 52.4766Z" fill="#F59620"/>
</svg>
