<svg width="48" height="48" viewBox="0 0 48 48" fill="none" xmlns="http://www.w3.org/2000/svg">
<path opacity="0.4" d="M48 14.4V34.056C48 42.792 42.792 48 34.056 48H13.944C5.208 48 0 42.792 0 34.056V14.424L48 14.4Z" fill="#F59620"/>
<path d="M16.8023 37.7998C16.5383 37.7998 16.2503 37.7278 16.0103 37.6078C14.1623 36.6718 12.5783 35.2798 11.4263 33.5518C10.4663 32.1118 10.4663 30.2638 11.4263 28.8238C12.5783 27.0958 14.1623 25.7038 16.0103 24.7918C16.8983 24.3358 17.9783 24.7198 18.4343 25.6078C18.8903 26.4958 18.5303 27.5758 17.6183 28.0318C16.3223 28.6798 15.2183 29.6638 14.4263 30.8638C14.2823 31.0798 14.2823 31.3678 14.4263 31.6078C15.2183 32.8078 16.3223 33.7918 17.6183 34.4398C18.5063 34.8958 18.8663 35.9758 18.4343 36.8638C18.0983 37.4398 17.4503 37.7998 16.8023 37.7998Z" fill="#F59620"/>
<path d="M31.702 37.7998C31.03 37.7998 30.406 37.4398 30.094 36.8158C29.638 35.9278 29.998 34.8478 30.91 34.3918C32.206 33.7438 33.31 32.7598 34.102 31.5598C34.246 31.3438 34.246 31.0558 34.102 30.8158C33.31 29.6158 32.206 28.6318 30.91 27.9838C30.022 27.5278 29.662 26.4478 30.094 25.5598C30.55 24.6718 31.63 24.3118 32.518 24.7438C34.366 25.6798 35.95 27.0718 37.102 28.7998C38.062 30.2398 38.062 32.0878 37.102 33.5278C35.95 35.2558 34.366 36.6478 32.518 37.5598C32.23 37.7278 31.966 37.7998 31.702 37.7998Z" fill="#F59620"/>
<path d="M48 13.944V14.4L0 14.424V13.944C0 5.208 5.208 0 13.944 0H34.056C42.792 0 48 5.208 48 13.944Z" fill="#F59620"/>
</svg>
